<svg width="14" height="14" viewBox="0 0 14 14" fill="none" xmlns="http://www.w3.org/2000/svg">
<g clip-path="url(#clip0_3712_794)">
<path d="M14.0009 9.47556C14.0009 7.73827 13.0043 6.18779 11.5116 5.43359C11.4652 8.76462 8.76462 11.4652 5.43359 11.5116C6.18779 13.0043 7.73827 14.0009 9.47556 14.0009C10.2901 14.0009 11.0822 13.784 11.7782 13.3718L13.9812 13.9812L13.3718 11.7782C13.784 11.0822 14.0009 10.2901 14.0009 9.47556Z" fill="currentColor"/>
<path d="M10.6914 5.3457C10.6914 2.39803 8.29338 0 5.3457 0C2.39803 0 0 2.39803 0 5.3457C0 6.30637 0.255707 7.24171 0.741272 8.06288L0.0196533 10.6716L2.62853 9.95014C3.44969 10.4357 4.38504 10.6914 5.3457 10.6914C8.29338 10.6914 10.6914 8.29338 10.6914 5.3457ZM4.52539 4.10156H3.70508C3.70508 3.19687 4.44101 2.46094 5.3457 2.46094C6.2504 2.46094 6.98633 3.19687 6.98633 4.10156C6.98633 4.56075 6.79193 5.00209 6.45281 5.31227L5.75586 5.95015V6.58984H4.93555V5.58891L5.89899 4.70708C6.07117 4.54953 6.16602 4.33452 6.16602 4.10156C6.16602 3.64922 5.79805 3.28125 5.3457 3.28125C4.89336 3.28125 4.52539 3.64922 4.52539 4.10156ZM4.93555 7.41016H5.75586V8.23047H4.93555V7.41016Z" fill="currentColor"/>
</g>
<defs>
<clipPath id="clip0_3712_794">
<rect width="14" height="14" fill="white"/>
</clipPath>
</defs>
</svg>
