<svg width="89" height="81" viewBox="0 0 89 81" fill="none" xmlns="http://www.w3.org/2000/svg">
<g opacity="0.8">
<circle opacity="0.2" cx="66.5" cy="22.5" r="22.5" fill="#18ACAC"/>
<circle opacity="0.1" cx="10" cy="35" r="10" fill="#18ACAC"/>
<path d="M57.5781 41.875C58.1603 41.875 58.6562 42.3709 58.6562 42.9531C58.6562 43.5353 58.1603 44.0312 57.5781 44.0312C56.9959 44.0312 56.5 43.5353 56.5 42.9531C56.5 42.3709 56.9959 41.875 57.5781 41.875Z" fill="#323232"/>
<path d="M38.1719 41.875C38.7541 41.875 39.25 42.3709 39.25 42.9531C39.25 43.5353 38.7541 44.0312 38.1719 44.0312C37.5897 44.0312 37.0938 43.5353 37.0938 42.9531C37.0938 42.3709 37.5897 41.875 38.1719 41.875Z" fill="#323232"/>
<path d="M70.3647 65.3801C70.0887 65.3801 69.8127 65.2745 69.6014 65.0653L64.8232 60.2871C64.4027 59.8666 64.4027 59.1831 64.8232 58.7626C65.2436 58.3421 65.9272 58.3421 66.3476 58.7626L71.1259 63.5409C71.5464 63.9613 71.5464 64.6449 71.1259 65.0653C70.9167 65.2766 70.6407 65.3801 70.3647 65.3801Z" fill="#455A64"/>
<path d="M81.2969 80.6876C79.8587 80.6876 78.5045 80.127 77.4846 79.1092L69.9378 71.5623C68.92 70.5424 68.3594 69.1905 68.3594 67.7501C68.3594 66.3097 68.92 64.9577 69.9378 63.9378C71.8913 61.9843 75.6065 61.9843 77.5601 63.9378L85.107 71.4847C86.1269 72.5046 86.6875 73.8566 86.6875 75.297C86.6875 76.7373 86.1269 78.0893 85.1091 79.1092C84.0914 80.1291 82.7351 80.6876 81.2969 80.6876ZM73.75 64.5588C72.8724 64.5588 72.0401 64.8866 71.4622 65.4645C70.852 66.0747 70.5156 66.8876 70.5156 67.7501C70.5156 68.6126 70.852 69.4255 71.4622 70.0379L79.0091 77.5847C80.2317 78.8052 82.3599 78.8052 83.5825 77.5847C84.1949 76.9724 84.5312 76.1595 84.5312 75.297C84.5312 74.4345 84.1949 73.6215 83.5847 73.0092L76.0378 65.4623C75.4599 64.8866 74.6276 64.5588 73.75 64.5588Z" fill="#455A64"/>
<path d="M47.875 67.75C33.6071 67.75 22 56.1429 22 41.875C22 27.6071 33.6071 16 47.875 16C62.1429 16 73.75 27.6071 73.75 41.875C73.75 56.1429 62.1429 67.75 47.875 67.75ZM47.875 18.1562C34.7973 18.1562 24.1562 28.7973 24.1562 41.875C24.1562 54.9527 34.7973 65.5938 47.875 65.5938C60.9527 65.5938 71.5938 54.9527 71.5938 41.875C71.5938 28.7973 60.9527 18.1562 47.875 18.1562Z" fill="#455A64"/>
<path d="M50.0312 48.3887C49.4361 48.3887 48.9531 47.9057 48.9531 47.3105C48.9531 46.7176 48.4701 46.2324 47.875 46.2324C47.2799 46.2324 46.7969 46.7176 46.7969 47.3105C46.7969 47.9057 46.3139 48.3887 45.7188 48.3887C45.1236 48.3887 44.6406 47.9057 44.6406 47.3105C44.6406 45.5273 46.0918 44.0762 47.875 44.0762C49.6582 44.0762 51.1094 45.5273 51.1094 47.3105C51.1094 47.9057 50.6264 48.3887 50.0312 48.3887Z" fill="#455A64"/>
<path d="M57.5781 45.1094C56.4094 45.1094 55.4219 44.1218 55.4219 42.9531C55.4219 41.7844 56.4094 40.7969 57.5781 40.7969C58.7468 40.7969 59.7344 41.7844 59.7344 42.9531C59.7344 44.1218 58.7468 45.1094 57.5781 45.1094Z" fill="#455A64"/>
<path d="M38.1719 45.1094C37.0032 45.1094 36.0156 44.1218 36.0156 42.9531C36.0156 41.7844 37.0032 40.7969 38.1719 40.7969C39.3406 40.7969 40.3281 41.7844 40.3281 42.9531C40.3281 44.1218 39.3406 45.1094 38.1719 45.1094Z" fill="#455A64"/>
<path d="M70.3647 65.3801C70.0887 65.3801 69.8127 65.2745 69.6014 65.0653L64.8232 60.2871C64.4027 59.8666 64.4027 59.1831 64.8232 58.7626C65.2436 58.3421 65.9272 58.3421 66.3476 58.7626L71.1259 63.5409C71.5464 63.9613 71.5464 64.6449 71.1259 65.0653C70.9167 65.2766 70.6407 65.3801 70.3647 65.3801Z" fill="#323232"/>
<path d="M81.2969 80.6876C79.8587 80.6876 78.5045 80.127 77.4846 79.1092L69.9378 71.5623C68.92 70.5424 68.3594 69.1905 68.3594 67.7501C68.3594 66.3097 68.92 64.9577 69.9378 63.9378C71.8913 61.9843 75.6065 61.9843 77.5601 63.9378L85.107 71.4847C86.1269 72.5046 86.6875 73.8566 86.6875 75.297C86.6875 76.7373 86.1269 78.0893 85.1091 79.1092C84.0914 80.1291 82.7351 80.6876 81.2969 80.6876ZM73.75 64.5588C72.8724 64.5588 72.0401 64.8866 71.4622 65.4645C70.852 66.0747 70.5156 66.8876 70.5156 67.7501C70.5156 68.6126 70.852 69.4255 71.4622 70.0379L79.0091 77.5847C80.2317 78.8052 82.3599 78.8052 83.5825 77.5847C84.1949 76.9724 84.5312 76.1595 84.5312 75.297C84.5312 74.4345 84.1949 73.6215 83.5847 73.0092L76.0378 65.4623C75.4599 64.8866 74.6276 64.5588 73.75 64.5588Z" fill="#323232"/>
<path d="M47.875 67.75C33.6071 67.75 22 56.1429 22 41.875C22 27.6071 33.6071 16 47.875 16C62.1429 16 73.75 27.6071 73.75 41.875C73.75 56.1429 62.1429 67.75 47.875 67.75ZM47.875 18.1562C34.7973 18.1562 24.1562 28.7973 24.1562 41.875C24.1562 54.9527 34.7973 65.5938 47.875 65.5938C60.9527 65.5938 71.5938 54.9527 71.5938 41.875C71.5938 28.7973 60.9527 18.1562 47.875 18.1562Z" fill="#323232"/>
<path d="M50.0312 48.3887C49.4361 48.3887 48.9531 47.9057 48.9531 47.3105C48.9531 46.7176 48.4701 46.2324 47.875 46.2324C47.2799 46.2324 46.7969 46.7176 46.7969 47.3105C46.7969 47.9057 46.3139 48.3887 45.7188 48.3887C45.1236 48.3887 44.6406 47.9057 44.6406 47.3105C44.6406 45.5273 46.0918 44.0762 47.875 44.0762C49.6582 44.0762 51.1094 45.5273 51.1094 47.3105C51.1094 47.9057 50.6264 48.3887 50.0312 48.3887Z" fill="#323232"/>
<path d="M57.5781 45.1094C56.4094 45.1094 55.4219 44.1218 55.4219 42.9531C55.4219 41.7844 56.4094 40.7969 57.5781 40.7969C58.7468 40.7969 59.7344 41.7844 59.7344 42.9531C59.7344 44.1218 58.7468 45.1094 57.5781 45.1094Z" fill="#323232"/>
<path d="M38.1719 45.1094C37.0032 45.1094 36.0156 44.1218 36.0156 42.9531C36.0156 41.7844 37.0032 40.7969 38.1719 40.7969C39.3406 40.7969 40.3281 41.7844 40.3281 42.9531C40.3281 44.1218 39.3406 45.1094 38.1719 45.1094Z" fill="#323232"/>
</g>
</svg>
